<svg t="1594178485695" class="icon" viewBox="0 0 1024 1024" version="1.1" xmlns="http://www.w3.org/2000/svg" p-id="32229" width="200" height="200"><path d="M774.9632 278.436978a279.210667 279.210667 0 0 1-150.823822 249.810489c181.748622 12.288 322.241422 142.722844 320.193422 324.858311v62.577778c0 120.240356-176.219022 98.531556-432.3328 98.531555-256.113778 0-432.355556 21.7088-432.355556-98.531555v-62.577778c-1.683911-177.857422 132.437333-306.107733 309.384534-324.084622a279.210667 279.210667 0 0 1-154.692267-250.584178C232.197689 127.089778 352.938667 2.548622 504.263111 0a274.568533 274.568533 0 0 1 270.700089 278.436978z m5.7344 506.697955a68.425956 68.425956 0 0 0 20.252444-49.106489 63.351467 63.351467 0 0 0-60.734577-65.877333c-15.246222 0.159289-29.787022 6.3488-40.482134 17.2032a57.685333 57.685333 0 0 0-40.595911-17.2032 63.351467 63.351467 0 0 0-60.598044 65.991111 68.8128 68.8128 0 0 0 16.384 46.557867l69.2224 75.502933a20.252444 20.252444 0 0 0 29.764266 0l66.787556-73.068089z" fill="#d4237a" p-id="32230"></path></svg>