<svg t="1594178520851" class="icon" viewBox="0 0 1024 1024" version="1.1" xmlns="http://www.w3.org/2000/svg" p-id="33159" width="200" height="200"><path d="M762.88 929.792H261.12c-46.08 0-83.456-37.376-83.456-83.456v-187.904c0-46.08 37.376-83.456 83.456-83.456h501.76c46.08 0 83.456 37.376 83.456 83.456v187.904c0 46.08-37.376 83.456-83.456 83.456z m-501.76-313.344c-23.04 0-41.984 18.944-41.984 41.984v187.904c0 23.04 18.944 41.984 41.984 41.984h501.76c23.04 0 41.984-18.944 41.984-41.984v-187.904c0-23.04-18.944-41.984-41.984-41.984H261.12z" p-id="33160"></path><path d="M909.312 616.448H114.688c-11.264 0-20.992-9.216-20.992-20.992 0-11.264 9.216-20.992 20.992-20.992h794.112c11.264 0 20.992 9.216 20.992 20.992s-9.216 20.992-20.48 20.992zM512 833.536c-11.264 0-20.992-9.216-20.992-20.992v-120.32c0-11.264 9.216-20.992 20.992-20.992 11.264 0 20.992 9.216 20.992 20.992v120.32c0 11.264-9.728 20.992-20.992 20.992z" p-id="33161"></path><path d="M571.904 773.12H452.096c-11.264 0-20.992-9.216-20.992-20.992s9.216-20.992 20.992-20.992h120.32c11.264 0 20.992 9.216 20.992 20.992s-9.728 20.992-21.504 20.992zM512 524.288c-85.504 0-155.136-69.632-155.136-155.136 0-35.328 12.288-70.144 34.816-97.792l2.048-2.56 3.072-2.048c28.672-17.92 70.656-27.648 114.688-27.648s86.016 9.728 114.688 27.648l3.072 2.048 2.048 2.56c22.528 27.648 34.816 61.952 34.816 97.792 1.024 86.016-68.608 155.136-154.112 155.136zM421.888 301.568c-15.36 19.968-23.04 43.52-23.04 68.608 0 61.952 50.688 113.152 113.152 113.152s113.152-50.688 113.152-113.152c0-25.088-7.68-48.64-23.04-68.608-22.016-12.288-55.296-19.968-90.112-19.968-33.28 0-68.096 7.168-90.112 19.968zM542.72 205.312H481.28c-8.704 0-15.872-6.656-15.872-15.872s6.656-15.36 15.872-15.36h60.928c8.704 0 15.872 6.656 15.872 15.872s-6.656 15.36-15.36 15.36z" fill="#FF4848" p-id="33162"></path><path d="M512 235.52c-8.704 0-15.872-6.656-15.872-15.872V158.72c0-8.704 6.656-15.872 15.872-15.872 8.704 0 15.872 6.656 15.872 15.872v61.44c0 8.704-7.168 15.36-15.872 15.36z" fill="#FF4848" p-id="33163"></path><path d="M646.144 348.672c-11.264 0-20.992-9.216-20.992-20.992 0-18.944-44.032-46.08-113.152-46.08s-113.152 27.136-113.152 46.08c0 11.264-9.216 20.992-20.992 20.992s-20.992-9.216-20.992-20.992V181.76c0-50.176 67.072-87.552 155.136-87.552s155.136 37.376 155.136 87.552V327.68c0 11.264-9.216 20.992-20.992 20.992zM512 239.616c45.568 0 84.992 9.728 113.152 26.624V181.76c0-18.944-44.032-46.08-113.152-46.08s-113.152 27.136-113.152 46.08V266.24c28.16-16.384 67.584-26.624 113.152-26.624zM778.24 616.448H245.76l10.24-28.16C280.064 522.752 336.896 471.04 411.648 445.44l11.776-4.096 9.216 8.704c21.504 20.992 49.664 32.256 78.848 32.256s57.856-11.264 78.848-32.256l9.216-8.704 11.776 4.096c74.752 25.6 131.584 77.312 155.648 142.848l11.264 28.16z m-469.504-41.984h406.528c-22.528-36.864-58.88-67.072-104.96-84.992-27.648 23.04-61.952 34.816-98.304 34.816s-70.656-12.288-98.304-34.816c-46.08 18.432-82.944 48.128-104.96 84.992z" p-id="33164"></path></svg>