<svg t="1594183252374" class="icon" viewBox="0 0 1024 1024" version="1.1" xmlns="http://www.w3.org/2000/svg" p-id="36060" width="200" height="200"><path d="M443.733333 394.666667v-121.6h136.533334v121.6l76.8-76.8c25.6-25.6 25.6-70.4 0-96l-96-96c-25.6-25.6-70.4-25.6-96 0l-96 96c-25.6 25.6-25.6 70.4 0 96l74.666666 76.8z m-170.666666 185.6v-136.533334h121.6L320 366.933333c-25.6-25.6-70.4-25.6-96 0L128 462.933333c-25.6 25.6-25.6 70.4 0 96l96 96c25.6 25.6 70.4 25.6 96 0l76.8-76.8h-123.733333v2.133334z m307.2 49.066666v121.6h-136.533334v-121.6L366.933333 704c-25.6 25.6-25.6 70.4 0 96l96 96c25.6 25.6 70.4 25.6 96 0l96-96c25.6-25.6 25.6-70.4 0-96l-74.666666-74.666667z m317.866666-166.4l-96-96c-25.6-25.6-70.4-25.6-96 0l-76.8 76.8h121.6v136.533334h-121.6l76.8 76.8c25.6 25.6 70.4 25.6 96 0l96-96c25.6-27.733333 25.6-70.4 0-98.133334z" fill="#ffffff" p-id="36061"></path><path d="M443.733333 394.666667v-121.6h136.533334v121.6l76.8-76.8c25.6-25.6 25.6-70.4 0-96l-96-96c-25.6-25.6-70.4-25.6-96 0l-96 96c-25.6 25.6-25.6 70.4 0 96l74.666666 76.8z m-170.666666 185.6v-136.533334h121.6L320 366.933333c-25.6-25.6-70.4-25.6-96 0L128 462.933333c-25.6 25.6-25.6 70.4 0 96l96 96c25.6 25.6 70.4 25.6 96 0l76.8-76.8h-123.733333v2.133334z m307.2 49.066666v121.6h-136.533334v-121.6L366.933333 704c-25.6 25.6-25.6 70.4 0 96l96 96c25.6 25.6 70.4 25.6 96 0l96-96c25.6-25.6 25.6-70.4 0-96l-74.666666-74.666667z m317.866666-166.4l-96-96c-25.6-25.6-70.4-25.6-96 0l-76.8 76.8h121.6v136.533334h-121.6l76.8 76.8c25.6 25.6 70.4 25.6 96 0l96-96c25.6-27.733333 25.6-70.4 0-98.133334z" fill="#ffffff" p-id="36062"></path></svg>