<svg t="1594263683336" class="icon" viewBox="0 0 1024 1024" version="1.1" xmlns="http://www.w3.org/2000/svg" p-id="2630" width="200" height="200"><path d="M512 0a512 512 0 1 0 0.073143 1024.073143A512 512 0 0 0 512 0z m0 950.857143c-242.029714 0-438.857143-196.827429-438.857143-438.857143 0-241.956571 196.827429-438.857143 438.857143-438.857143s438.857143 196.900571 438.857143 438.857143c0 242.029714-196.827429 438.857143-438.857143 438.857143z" fill="#ffffff" p-id="2631"></path><path d="M425.398857 310.637714a43.885714 43.885714 0 0 0-65.755428 38.034286v327.826286a43.885714 43.885714 0 0 0 65.755428 38.034285l283.940572-163.84a43.885714 43.885714 0 0 0 0-76.068571L425.398857 310.637714z" fill="#ffffff" p-id="2632"></path></svg>