<svg t="1594176744780" class="icon" viewBox="0 0 1024 1024" version="1.1" xmlns="http://www.w3.org/2000/svg" p-id="30158" width="200" height="200"><path d="M512.099979 402.633497V0L0.109976 0.219953v1023.780047l511.990003-0.149968v-0.579875c-101.408213-65.975826-168.473804-180.311261-168.473805-310.313331s67.055594-244.347503 168.473805-310.323329z m-61.53678-98.39886H305.724317v144.099041h-96.569253V304.234637H64.306184l0.069985-95.969381 144.588936-0.18996 0.189959-143.999062h96.569253V208.075296h144.84888v96.159341zM597.041729 565.858429h200.556912v45.170295h-200.556912zM595.232118 659.808244v46.979907h84.921755v-18.066119c-1.20974-12.027416-1.809611-21.685341-1.809611-28.913788h-83.112144z" p-id="30159" fill="#1296db"></path><path d="M713.836637 403.653278c-170.813302 0-309.29355 138.470251-309.293551 309.29355s138.470251 309.29355 309.293551 309.29355 309.29355-138.470251 309.29355-309.29355-138.480248-309.29355-309.29355-309.29355z m150.607643 516.32907c-86.721368-12.05741-145.168811-66.855636-175.262346-164.414677h-93.949816v84.921755c28.913788-9.627931 57.817578-19.87573 86.721369-30.713401 1.189744 10.837672 5.418836 27.724044 12.647282 50.589131-25.294566 9.657925-61.426803 24.674699-108.406709 45.170295-18.066119 8.418191-29.533655 13.837027-34.332624 16.256508-20.495597-32.523013-31.333268-51.778876-32.523013-57.817578 0-1.189744 1.189744-2.399484 3.609225-3.609225 9.627931-10.837672 14.456894-23.484954 14.456894-37.941849V517.068911h323.410517v142.739333H737.971451c0 18.066119 1.189744 33.732753 3.609225 46.979907h151.767394v48.77952H750.618734c18.066119 54.198356 45.760169 86.131495 83.112144 95.759427 8.408194 0 13.837027-16.256507 16.256508-48.77952 14.456894 7.228447 33.712757 14.456894 57.817578 21.685341-4.828963 62.606549-19.275859 94.539689-43.360684 95.749429z" p-id="30160" fill="#1296db"></path></svg>