<svg t="1594183303648" class="icon" viewBox="0 0 1024 1024" version="1.1" xmlns="http://www.w3.org/2000/svg" p-id="37541" width="200" height="200"><path d="M430.08 314.026667c-13.653333-10.24-37.546667-6.826667-47.786667 6.826666l-102.4 136.533334c-10.24 13.653333-10.24 27.306667 0 40.96l102.4 136.533333c10.24 13.653333 34.133333 17.066667 47.786667 6.826667 13.653333-10.24 17.066667-34.133333 6.826667-47.786667L348.16 477.866667l88.746667-116.053334c10.24-13.653333 6.826667-37.546667-6.826667-47.786666z m334.506667 327.68c13.653333 10.24 37.546667 6.826667 47.786666-6.826667l102.4-136.533333c10.24-13.653333 10.24-27.306667 0-40.96l-102.4-136.533334c-10.24-13.653333-34.133333-17.066667-47.786666-6.826666-13.653333 10.24-17.066667 34.133333-6.826667 47.786666l85.333333 116.053334-85.333333 116.053333c-10.24 13.653333-6.826667 37.546667 6.826667 47.786667z m-167.253334-341.333334l-68.266666 307.2c-3.413333 17.066667 6.826667 37.546667 23.893333 40.96 17.066667 3.413333 37.546667-6.826667 40.96-23.893333l68.266667-307.2c3.413333-17.066667-6.826667-37.546667-23.893334-40.96-17.066667-6.826667-34.133333 3.413333-40.96 23.893333z" p-id="37542" fill="#ffffff"></path><path d="M887.466667 645.12c-20.48 0-34.133333 13.653333-34.133334 34.133333V750.933333h-102.4c-58.026667 0-102.4 44.373333-102.4 102.4v102.4H208.213333c-20.48 0-37.546667-17.066667-37.546666-40.96V109.226667C170.666667 85.333333 187.733333 68.266667 208.213333 68.266667h607.573334c20.48 0 37.546667 17.066667 37.546666 40.96V238.933333c0 20.48 13.653333 34.133333 34.133334 34.133334s34.133333-13.653333 34.133333-34.133334V109.226667C921.6 47.786667 873.813333 0 815.786667 0H208.213333C150.186667 0 102.4 47.786667 102.4 109.226667v808.96C102.4 976.213333 150.186667 1024 208.213333 1024h467.626667c10.24 0 20.48 0 27.306667-6.826667l204.8-170.666666c10.24-10.24 13.653333-23.893333 10.24-37.546667V679.253333c3.413333-20.48-10.24-34.133333-30.72-34.133333zM750.933333 819.2h81.92L716.8 918.186667V853.333333c0-20.48 13.653333-34.133333 34.133333-34.133333z" p-id="37543" fill="#ffffff"></path></svg>