<svg t="1594173895160" class="icon" viewBox="0 0 1024 1024" version="1.1" xmlns="http://www.w3.org/2000/svg" p-id="12486" width="200" height="200"><path d="M 709.742 729.527 c -22.1556 33.4918 -44.699 66.737 -66.2949 100.584 c -14.0561 22.0215 -17.301 46.6587 -10.4817 71.6724 c 10.6792 39.2029 36.9127 63.8185 76.5812 71.0891 c 40.2497 7.37087 73.061 -7.40669 96.4875 -41.1052 c 21.1978 -30.4955 41.6956 -61.4843 62.4769 -92.2725 c 1.06219 -1.57794 1.88595 -3.32165 2.59613 -4.59465 c -53.4115 -35.7195 -106.374 -71.1402 -159.892 -106.932 C 710.741 728.461 710.139 728.928 709.742 729.527 Z" fill="#ffffff" p-id="12487"></path><path d="M 977.073 599.31 c -13.3101 -37.1358 -40.4083 -59.8112 -79.5784 -64.8101 c -38.6308 -4.93234 -69.6493 10.0233 -91.7179 42.4416 c -20.4743 30.077 -40.791 60.2656 -61.1579 90.4163 c -1.3569 2.0067 -2.55008 4.11471 -3.08629 4.99271 c 53.1219 36.223 105.744 72.1073 158.404 108.018 c 23.7223 -35.1741 47.4354 -68.8327 69.4968 -103.543 C 984.683 652.838 986.596 625.846 977.073 599.31 Z" fill="#ffffff" p-id="12488"></path><path d="M 290.043 434.075 c 21.9622 21.9694 48.2919 39.561 76.9966 51.4498 c 28.7037 11.8888 59.759 18.0675 90.8246 18.0675 c 31.0696 0 62.127 -6.17872 90.8297 -18.0675 c 28.7037 -11.8888 55.0334 -29.4804 76.9966 -51.4498 c 21.9704 -21.9642 39.561 -48.2939 51.4498 -76.9966 c 11.8877 -28.7007 18.0675 -59.7601 18.0675 -90.8235 c 0 -31.0696 -6.17975 -62.127 -18.0675 -90.8287 c -11.8888 -28.7048 -29.4804 -55.0283 -51.4498 -76.9987 c -21.9632 -21.9704 -48.2929 -39.562 -76.9966 -51.4498 c -28.7027 -11.8888 -59.7601 -18.0675 -90.8297 -18.0675 c -31.0655 0 -62.1208 6.17872 -90.8246 18.0675 c -28.7037 11.8877 -55.0344 29.4794 -76.9966 51.4498 c -21.9704 21.9694 -39.562 48.2929 -51.4498 76.9987 c -11.8877 28.7017 -18.0685 59.759 -18.0685 90.8287 c 0 31.0635 6.18077 62.1229 18.0685 90.8235 C 250.481 385.781 268.073 412.112 290.043 434.075 Z" fill="#ffffff" p-id="12489"></path><path d="M 449.13 578.023 c -215.83 0 -390.802 174.971 -390.802 390.801 c 0 2.32802 0.046049 4.62534 0.076748 6.93802 l 513.337 0 c -17.8833 -40.5321 -27.8124 -85.3519 -27.8124 -132.499 c 0 -85.1954 32.4224 -162.821 85.5975 -221.193 C 575.567 593.933 514.206 578.023 449.13 578.023 Z M 463.021 844.263 l -74.0372 0 l 0 74.0372 l -90.1123 0 l 0 -74.0372 l -74.0383 0 l 0 -90.1113 l 74.0383 0 l 0 -74.0403 l 90.1123 0 l 0 74.0403 l 74.0372 0 L 463.021 844.263 Z" fill="#ffffff" p-id="12490"></path></svg>