<svg t="1594172764685" class="icon" viewBox="0 0 1024 1024" version="1.1" xmlns="http://www.w3.org/2000/svg" p-id="9176" width="200" height="200"><path d="M512 512m-512 0a512 512 0 1 0 1024 0 512 512 0 1 0-1024 0Z" fill="#D8F8FB" p-id="9177"></path><path d="M424.4992 828.5696c-4.5056-3.328-104.9088-50.6368-104.9088-50.6368-44.6976 14.7456-54.7328 115.0976-59.2384 174.08H367.104zM602.4192 828.5696c4.5056-3.328 104.9088-50.6368 104.9088-50.6368 44.6976 14.7456 54.6816 115.0976 59.2384 174.08h-106.752z" fill="#443D47" p-id="9178"></path><path d="M513.4336 667.9552h-47.104v29.7472c0 18.4832-3.072 14.6432-20.48 24.2688a146.3296 146.3296 0 0 1-21.7088 15.36c20.9408 67.4304 35.84 154.112 76.8 215.04h24.32c40.96-60.8256 56.32-147.5072 76.8-215.04a146.3296 146.3296 0 0 1-21.7088-15.36c-17.3056-9.6256-20.48-5.7856-20.48-24.2688v-29.7472z" fill="#F5B67E" p-id="9179"></path><path d="M513.4336 829.952c-77.824-6.144-66.56-107.264-67.4304-107.52-25.1392 11.4688-116.736 47.36-126.976 56.32 8.2944 18.2272 20.9408 93.184 31.8464 173.7728H675.84c10.9056-80.5888 23.5008-155.5456 31.8464-173.7728-10.24-8.8576-101.8368-44.7488-126.976-56.32-0.6656 0.256 10.5472 101.376-67.2768 107.52z" fill="#4D4351" p-id="9180"></path><path d="M639.5392 458.0864c-6.7584 38.3488 15.9744 70.2464 50.7904 77.1584a62.5152 62.5152 0 0 0 75.1616-52.224c6.7584-38.3488-15.9744-75.008-50.7392-81.92S646.2976 419.84 639.5392 458.0864zM396.8 458.0864c6.7584 38.3488-15.9744 70.2464-50.7904 77.1584a62.5152 62.5152 0 0 1-75.1616-52.224c-6.7584-38.3488 15.9744-75.008 50.7392-81.92S390.0416 419.84 396.8 458.0864z" fill="#F6C085" p-id="9181"></path><path d="M691.7632 229.8368c-33.9456-46.08-87.04-76.4416-143.36-78.6944h-2.9184v-2.2016l-27.6992 1.1264-27.6992-1.1264v2.2016h-2.9184c-56.32 2.2528-109.2096 32.5632-143.36 78.6944s-38.5024 104.3456-35.84 160.1024c1.9968 42.0864 9.472 110.0288 11.52 152.1664 54.0672 202.1888 345.6512 205.5168 396.032 0 2.0992-42.1376 9.5232-110.08 11.5712-152.1664 3.1744-55.7568-1.3312-113.92-35.328-160.1024z" fill="#F8C997" p-id="9182"></path><path d="M345.856 307.2c-2.6624 5.7856 12.8-52.6336 46.6432-53.6064 35.4816-1.0752 256 12.3392 267.1616-2.4064 37.3248 47.2576 64.5632 234.6496 66.56 234.24 5.12-0.9728 5.5296-19.3024 6.0416-23.2448a664.832 664.832 0 0 0 4.5056-83.8144c0-51.2 14.848-150.3232-78.08-211.968-57.1904-37.888-175.36-41.6768-241.152-20.224-46.08 15.0016-89.7536 53.9136-106.0864 99.328-17.9712 49.8176-17.5104 88.7296-11.5712 187.4432 0.6144 10.7008 1.8944 21.4016 3.3792 32.0512A210.4832 210.4832 0 0 0 307.2 486.4c9.1136 37.5808 10.24-134.6048 38.656-179.2z" fill="#A95C40" p-id="9183"></path><path d="M693.9136 212.5312c-7.2192 72.0384-100.608 128-169.9328 128l20.48-19.0976c-77.9776 23.7056-121.4976 7.5776-121.344 7.5776 2.816 0.5632 32.3072-13.2096 32.3072-13.2096-44.3392 1.3312-89.1392 1.9968-123.4432-30.1568l49.5616-88.1152z" fill="#A95C40" p-id="9184"></path><path d="M411.5968 489.5744a16.3328 16.3328 0 1 0-16.3328-16.3328 16.3328 16.3328 0 0 0 16.3328 16.3328zM624.64 489.5744a16.3328 16.3328 0 1 0-16.2816-16.3328 16.3328 16.3328 0 0 0 16.2816 16.3328z" fill="#3E3B3A" p-id="9185"></path><path d="M355.5328 427.5712c-5.9392-8.5504 21.8624-15.0016 50.3808-17.0496 47.9232-3.3792 75.3664 18.0224 52.2752 18.7904-17.2544 0.768-100.9152 0.768-102.656-1.7408zM671.0272 428.8512c6.2976-8.3456-21.248-15.872-49.7152-18.9952C573.44 404.48 545.3824 424.96 568.32 426.5984c17.2544 1.28 100.864 4.7104 102.7072 2.2528z" fill="#A95C40" p-id="9186"></path><path d="M571.9552 588.8c-9.984 55.9616-100.1472 55.9616-110.1312 0 26.9312 6.0928 77.2096 6.144 110.1312 0z" fill="#D6825B" p-id="9187"></path><path d="M481.792 555.8272v-0.512a3.328 3.328 0 0 1 1.3312-2.4064c6.7072-12.8512 19.8656-50.432 25.9072-91.7504 6.6048 0.4096-6.5536 70.3488-12.2368 87.04a118.0672 118.0672 0 0 1 20.48-1.5872c19.456 0 35.2256 3.8912 35.2256 8.704s-15.7696 8.704-35.2256 8.704-34.4576-3.6352-35.4816-8.192z" fill="#E5B17D" p-id="9188"></path></svg>