<svg t="1594174599377" class="icon" viewBox="0 0 1024 1024" version="1.1" xmlns="http://www.w3.org/2000/svg" p-id="16405" width="200" height="200"><path d="M38.267449 730.415407l445.895111 252.776297a37.925926 37.925926 0 0 0 37.243259 0.113777l452.190815-252.776296a37.925926 37.925926 0 0 0-0.303407-66.37037l-433.834667-237.719704a75.851852 75.851852 0 0 0-73.272889 0.18963L38.53293 664.272593a37.925926 37.925926 0 0 0-0.265481 66.142814z" fill="#FA4836" p-id="16406"></path><path d="M38.267449 540.86163l445.895111 252.776296a37.925926 37.925926 0 0 0 37.243259 0.113778l452.190815-252.776297a37.925926 37.925926 0 0 0-0.303407-66.37037L539.45856 236.885333a75.851852 75.851852 0 0 0-73.272889 0.227556L38.53293 474.718815a37.925926 37.925926 0 0 0-0.265481 66.142815z" fill="#CDDDFF" p-id="16407"></path><path d="M38.267449 313.306074l445.895111 252.776296a37.925926 37.925926 0 0 0 37.243259 0.113778l452.190815-252.776296a37.925926 37.925926 0 0 0-0.303407-66.370371L539.45856 9.329778a75.851852 75.851852 0 0 0-73.272889 0.227555L38.53293 247.163259A37.925926 37.925926 0 0 0 38.267449 313.268148z" fill="#3670FF" p-id="16408"></path></svg>