<svg t="1594174811314" class="icon" viewBox="0 0 1024 1024" version="1.1" xmlns="http://www.w3.org/2000/svg" p-id="28150" data-spm-anchor-id="a313x.7781069.0.i24" width="200" height="200"><path d="M87.771 604.255a431.238 431.238 0 0 1-5.8-70.651c0-207.473 147.528-380.489 343.403-419.867a108.193 108.193 0 0 0-0.782 13.005 107.12 107.12 0 0 0 4.266 30.023c-173.791 37.356-304.06 191.885-304.06 376.84 0 16.63 1.053 33.014 3.096 49.089a128.157 128.157 0 0 0-40.123 21.561z m827.305 69.472c15.194-43.905 23.448-91.05 23.448-140.123 0-191.772-126.044-354.106-299.809-408.675 0.01 0.603 0.015 1.207 0.015 1.812 0 14.38-2.835 28.098-7.976 40.626 153.859 50.596 264.942 195.444 264.942 366.237 0 37.059-5.23 72.897-14.992 106.815a129.197 129.197 0 0 1 34.372 33.308zM773.954 871.088c-72.697 56.885-164.243 90.792-263.707 90.792-121.908 0-231.919-50.935-309.913-132.683a127.9 127.9 0 0 0 41.248-19.206c69.424 67.496 164.191 109.062 268.665 109.062 82.281 0 158.541-25.782 221.141-69.707a128.081 128.081 0 0 0 42.566 21.742z" fill="#1296db" p-id="28151" data-spm-anchor-id="a313x.7781069.0.i21" class=""></path><path d="M874.282 769.156m-64.241 0a64.241 64.241 0 1 0 128.482 0 64.241 64.241 0 1 0-128.482 0Z" fill="#d4237a" p-id="28152" data-spm-anchor-id="a313x.7781069.0.i22" class=""></path><path d="M146.212 726.328m-64.241 0a64.241 64.241 0 1 0 128.482 0 64.241 64.241 0 1 0-128.482 0Z" fill="#f4ea2a" p-id="28153" data-spm-anchor-id="a313x.7781069.0.i25" class=""></path><path d="M531.661 126.741m-64.241 0a64.241 64.241 0 1 0 128.482 0 64.241 64.241 0 1 0-128.482 0Z" fill="#d81e06" p-id="28154" data-spm-anchor-id="a313x.7781069.0.i26" class=""></path><path d="M511.925 541.446m-298.454 0a298.454 298.454 0 1 0 596.908 0 298.454 298.454 0 1 0-596.908 0Z" fill="#FF7979" p-id="28155"></path></svg>