<svg t="1594174044319" class="icon" viewBox="0 0 1024 1024" version="1.1" xmlns="http://www.w3.org/2000/svg" p-id="14384" width="200" height="200"><path d="M319.9 449.2h31.7v31.7h-31.7v-31.7z m0 53.8h31.7v31.7h-31.7V503z m148.3 60h92.9v115.9h-92.9V563zM512 307.9c-42.9 0-77.8 34.9-77.8 77.8s34.9 77.8 77.8 77.8 77.8-34.9 77.8-77.8-34.9-77.8-77.8-77.8z m49.1 97.2h-29.8v29.8h-38.6v-29.8h-29.8v-38.6h29.8v-29.8h38.6v29.8h29.8v38.6zM270.6 558.6h31.7v31.7h-31.7v-31.7z m0-55.6h31.7v31.7h-31.7V503z m0-53.8h31.7v31.7h-31.7v-31.7z m49.3 109.4h31.7v31.7h-31.7v-31.7z m410.7 0h31.7v31.7h-31.7v-31.7z m0-55.6h31.7v31.7h-31.7V503z m0-53.8h31.7v31.7h-31.7v-31.7z m0 0" fill="#FF642E" p-id="14385"></path><path d="M512 0C229.7 0 0 229.7 0 512s229.7 512 512 512 512-229.7 512-512S794.3 0 512 0z m312.8 726H199.2v-45.6h38c-0.7-2.2-1.1-4.5-1.1-7V416.1c0-12.2 9.9-22.1 22.1-22.1h119.9v273.9c0 4.4 0.8 8.6 2.2 12.5h14.5c-0.7-2.2-1.1-4.5-1.1-7V268.5c0-12.2 9.9-22.1 22.1-22.1h192.8c12.2 0 22.1 9.9 22.1 22.1v404.9c0 2.5-0.4 4.9-1.1 7h14.5c1.4-3.9 2.2-8.2 2.2-12.5V394H769c12.2 0 22.1 9.9 22.1 22.1v257.2c0 2.5-0.4 4.9-1.1 7h35V726h-0.2z m0 0" fill="#FF642E" p-id="14386"></path><path d="M681.3 558.6H713v31.7h-31.7v-31.7z m0-55.6H713v31.7h-31.7V503z m0-53.8H713v31.7h-31.7v-31.7z m0 0" fill="#FF642E" p-id="14387"></path></svg>